<?xml version="1.0" encoding="utf-8"?>
<!-- Generator: Adobe Illustrator 24.0.2, SVG Export Plug-In . SVG Version: 6.00 Build 0)  -->
<svg version="1.1" id="Layer_1" xmlns="http://www.w3.org/2000/svg" xmlns:xlink="http://www.w3.org/1999/xlink" x="0px" y="0px"
	 width="72px" height="71.5px" viewBox="0 0 72 71.5" style="enable-background:new 0 0 72 71.5;" xml:space="preserve">
<style type="text/css">
	.st0{fill-rule:evenodd;clip-rule:evenodd;fill:#FFFFFF;}
	.st1{fill-rule:evenodd;clip-rule:evenodd;fill:#191938;}
</style>
<g>
	<path class="st0" d="M39.6,3.6c-8.9,0-17.2,4-22.8,11.1c-3.9,5-6,11.2-6,17.5v5.3c0,2.3-0.9,4.5-2.4,6.1c-1.2,1.2-2.7,2.1-4.3,2.5
		c0.6,1.5,2,3.8,4.5,6.3c2.1,2.2,4.6,4,7.3,5.3v-0.1c1.7-2.6,4.5-4.1,7.6-4.1c0.6,0,1.1,0.1,1.7,0.2c3.6,0.7,6.4,3.5,7.1,7h7.4
		c7.7,0,15-3.2,20.3-8.4c8.2-8.2,10.7-20.5,6.2-31.1C61.7,10.5,51.3,3.6,39.6,3.6z"/>
	<path class="st1" d="M39.6,0c-9.9,0-19.2,4.4-25.5,12.3c-4.5,5.7-6.9,12.7-6.9,20v5.2c0,2.7-1.9,5.2-5.6,5.4
		c-0.9,0-1.6,0.7-1.7,1.6c-0.1,2.4,2.5,6.9,6.1,10.5c2.5,2.5,5.4,4.5,8.5,6.1c-1,5.5,3.3,10.5,8.9,10.5c0,0,0,0,0.1,0
		c4.3,0,7.9-3,8.8-7.1h7.5c0.8,4.1,4.4,7.1,8.8,7.1c1,0,2.1-0.2,3.1-0.5c2.5-0.8,4.4-2.7,5.3-5.2c0.8-2.3,0.7-4.6,0-6.5
		c2-1.3,3.8-2.7,5.5-4.4c6.1-6,9.5-14.2,9.5-22.7c0-8.6-3.4-16.6-9.5-22.7C56.4,3.3,48.2,0,39.6,0z M39.6,3.6
		c11.6,0,22.1,7,26.6,17.7c4.5,10.7,2,23-6.2,31.1c-5.3,5.3-12.6,8.4-20.3,8.4h-7.4c-0.7-3.6-3.5-6.3-7.1-7
		c-0.6-0.1-1.1-0.2-1.7-0.2c-3,0-5.9,1.5-7.6,4.1v0.1c-2.7-1.4-5.1-3.2-7.3-5.3c-2.5-2.5-3.9-4.9-4.5-6.3c1.7-0.4,3.1-1.3,4.3-2.5
		c1.5-1.7,2.4-3.8,2.4-6.1v-5.3c0-6.3,2.1-12.5,6-17.5C22.4,7.5,30.7,3.6,39.6,3.6z"/>
	<path class="st1" d="M54,21.4c-2,0-3.6,1.6-3.6,3.6c0,2,1.6,3.6,3.6,3.6c2,0,3.6-1.6,3.6-3.6C57.6,23,56,21.4,54,21.4z"/>
	<path class="st1" d="M32.4,21.4c-2,0-3.6,1.6-3.6,3.6c0,2,1.6,3.6,3.6,3.6c2,0,3.6-1.6,3.6-3.6C36,23,34.4,21.4,32.4,21.4z"/>
	<path class="st1" d="M31.8,35.7c-1.3,0-2.2,1.3-1.6,2.5c2.4,5,7.4,8.2,13,8.2c5.6,0,10.6-3.2,13-8.2c0.5-1.2-0.3-2.5-1.6-2.5h0
		c-0.7,0-1.3,0.4-1.6,1c-1.8,3.7-5.6,6.1-9.7,6.1c-4.2,0-8-2.4-9.7-6.1h0C33.2,36.1,32.6,35.7,31.8,35.7z"/>
</g>
</svg>
